<?xml version="1.0" encoding="UTF-8" standalone="no"?>
<!-- Created with Inkscape (http://www.inkscape.org/) -->

<svg
   xmlns:dc="http://purl.org/dc/elements/1.1/"
   xmlns:cc="http://creativecommons.org/ns#"
   xmlns:rdf="http://www.w3.org/1999/02/22-rdf-syntax-ns#"
   xmlns:svg="http://www.w3.org/2000/svg"
   xmlns="http://www.w3.org/2000/svg"
   xmlns:xlink="http://www.w3.org/1999/xlink"
   xmlns:sodipodi="http://sodipodi.sourceforge.net/DTD/sodipodi-0.dtd"
   xmlns:inkscape="http://www.inkscape.org/namespaces/inkscape"
   width="600"
   height="360"
   id="svg2"
   sodipodi:version="0.32"
   inkscape:version="0.91 r13725"
   version="1.0"
   inkscape:output_extension="org.inkscape.output.svg.inkscape"
   sodipodi:docname="Accesso_Sequenziale_VS_Accesso_Casuale-es.svg">
  <defs
     id="defs4">
    <linearGradient
       inkscape:collect="always"
       id="linearGradient5012">
      <stop
         style="stop-color:#000000;stop-opacity:1;"
         offset="0"
         id="stop5014" />
      <stop
         style="stop-color:#000000;stop-opacity:0;"
         offset="1"
         id="stop5016" />
    </linearGradient>
    <linearGradient
       inkscape:collect="always"
       id="linearGradient4954">
      <stop
         style="stop-color:#000000;stop-opacity:1;"
         offset="0"
         id="stop4956" />
      <stop
         style="stop-color:#000000;stop-opacity:0;"
         offset="1"
         id="stop4958" />
    </linearGradient>
    <marker
       inkscape:stockid="Dot_s"
       orient="auto"
       refY="0"
       refX="0"
       id="Dot_s"
       style="overflow:visible">
      <path
         id="path2955"
         d="M -2.5,-1 C -2.5,1.76 -4.74,4 -7.5,4 C -10.26,4 -12.5,1.76 -12.5,-1 C -12.5,-3.76 -10.26,-6 -7.5,-6 C -4.74,-6 -2.5,-3.76 -2.5,-1 z"
         style="fill-rule:evenodd;stroke:#000000;stroke-width:1pt;marker-start:none;marker-end:none"
         transform="matrix(0.2,0,0,0.2,1.48,0.2)" />
    </marker>
    <marker
       inkscape:stockid="Arrow2Mend"
       orient="auto"
       refY="0"
       refX="0"
       id="Arrow2Mend"
       style="overflow:visible">
      <path
         id="path2914"
         style="font-size:12px;fill-rule:evenodd;stroke-width:0.625;stroke-linejoin:round"
         d="M 8.7185878,4.0337352 L -2.2072895,0.016013256 L 8.7185884,-4.0017078 C 6.97309,-1.6296469 6.9831476,1.6157441 8.7185878,4.0337352 z"
         transform="scale(-0.6,-0.6)" />
    </marker>
    <linearGradient
       inkscape:collect="always"
       xlink:href="#linearGradient4954"
       id="linearGradient4972"
       gradientUnits="userSpaceOnUse"
       x1="60.5"
       y1="89.5"
       x2="20.5"
       y2="89.5" />
    <linearGradient
       inkscape:collect="always"
       xlink:href="#linearGradient5012"
       id="linearGradient5018"
       x1="510.5"
       y1="89.5"
       x2="552.52032"
       y2="89.5"
       gradientUnits="userSpaceOnUse" />
    <linearGradient
       inkscape:collect="always"
       xlink:href="#linearGradient5012"
       id="linearGradient5103"
       gradientUnits="userSpaceOnUse"
       x1="510.5"
       y1="89.5"
       x2="552.52032"
       y2="89.5" />
    <linearGradient
       inkscape:collect="always"
       xlink:href="#linearGradient4954"
       id="linearGradient5255"
       gradientUnits="userSpaceOnUse"
       x1="60.5"
       y1="89.5"
       x2="20.5"
       y2="89.5" />
    <linearGradient
       inkscape:collect="always"
       xlink:href="#linearGradient5012"
       id="linearGradient5257"
       gradientUnits="userSpaceOnUse"
       x1="510.5"
       y1="89.5"
       x2="552.52032"
       y2="89.5" />
    <linearGradient
       inkscape:collect="always"
       xlink:href="#linearGradient5012"
       id="linearGradient5306"
       gradientUnits="userSpaceOnUse"
       x1="510.5"
       y1="89.5"
       x2="552.52032"
       y2="89.5"
       gradientTransform="translate(0,10)" />
    <linearGradient
       inkscape:collect="always"
       xlink:href="#linearGradient4954"
       id="linearGradient5338"
       gradientUnits="userSpaceOnUse"
       x1="60.5"
       y1="89.5"
       x2="20.5"
       y2="89.5" />
    <linearGradient
       inkscape:collect="always"
       xlink:href="#linearGradient4954"
       id="linearGradient5423"
       gradientUnits="userSpaceOnUse"
       x1="60.5"
       y1="89.5"
       x2="20.5"
       y2="89.5" />
    <linearGradient
       inkscape:collect="always"
       xlink:href="#linearGradient5012"
       id="linearGradient5425"
       gradientUnits="userSpaceOnUse"
       gradientTransform="translate(0,10)"
       x1="510.5"
       y1="89.5"
       x2="552.52032"
       y2="89.5" />
    <linearGradient
       inkscape:collect="always"
       xlink:href="#linearGradient5012"
       id="linearGradient5476"
       gradientUnits="userSpaceOnUse"
       gradientTransform="translate(0,10)"
       x1="510.5"
       y1="89.5"
       x2="552.52032"
       y2="89.5" />
    <linearGradient
       inkscape:collect="always"
       xlink:href="#linearGradient4954"
       id="linearGradient5508"
       gradientUnits="userSpaceOnUse"
       x1="60.5"
       y1="89.5"
       x2="20.5"
       y2="89.5" />
  </defs>
  <sodipodi:namedview
     id="base"
     pagecolor="#ffffff"
     bordercolor="#666666"
     borderopacity="1.0"
     gridtolerance="10"
     guidetolerance="10"
     objecttolerance="10"
     inkscape:pageopacity="0.0"
     inkscape:pageshadow="2"
     inkscape:document-units="px"
     inkscape:current-layer="layer1"
     inkscape:zoom="1.0328166"
     inkscape:cx="107.57811"
     inkscape:cy="41.70983"
     inkscape:window-width="1024"
     inkscape:window-height="756"
     inkscape:window-x="-8"
     inkscape:window-y="-8"
     showgrid="false"
     inkscape:window-maximized="1">
    <inkscape:grid
       type="xygrid"
       id="grid2281"
       empspacing="10"
       originx="-0.5"
       originy="-0.5"
       dotted="true" />
  </sodipodi:namedview>
  <metadata
     id="metadata7">
    <rdf:RDF>
      <cc:Work
         rdf:about="">
        <dc:format>image/svg+xml</dc:format>
        <dc:type
           rdf:resource="http://purl.org/dc/dcmitype/StillImage" />
        <dc:title />
        <dc:date>2007-10-05</dc:date>
        <dc:creator>
          <cc:Agent>
            <dc:title>Marti Raudsepp</dc:title>
          </cc:Agent>
        </dc:creator>
        <dc:language>en</dc:language>
        <dc:subject>
          <rdf:Bag>
            <rdf:li>random access</rdf:li>
            <rdf:li>sequential access</rdf:li>
          </rdf:Bag>
        </dc:subject>
        <cc:license
           rdf:resource="http://creativecommons.org/licenses/publicdomain/" />
      </cc:Work>
      <cc:License
         rdf:about="http://creativecommons.org/licenses/publicdomain/">
        <cc:permits
           rdf:resource="http://creativecommons.org/ns#Reproduction" />
        <cc:permits
           rdf:resource="http://creativecommons.org/ns#Distribution" />
        <cc:permits
           rdf:resource="http://creativecommons.org/ns#DerivativeWorks" />
      </cc:License>
    </rdf:RDF>
  </metadata>
  <g
     inkscape:label="Layer 1"
     inkscape:groupmode="layer"
     id="layer1"
     transform="translate(-0.5,-19.5)">
    <text
       xml:space="preserve"
       style="font-size:48.00000191px;font-style:normal;font-weight:normal;text-align:center;text-anchor:middle;fill:#000000;fill-opacity:1;stroke:none;font-family:'Bitstream Vera Sans';-inkscape-font-specification:'Bitstream Vera Sans, Normal';font-stretch:normal;font-variant:normal;writing-mode:lr;line-height:125%;"
       x="299.84766"
       y="59.5"
       id="text2878"
       sodipodi:linespacing="125%"><tspan
         sodipodi:role="line"
         id="tspan3448">Acceso secuencial</tspan></text>
    <rect
       style="fill:none;fill-opacity:1;stroke:#000000;stroke-width:1;stroke-miterlimit:4;stroke-dasharray:none;stroke-opacity:1"
       id="rect2281"
       width="60"
       height="20"
       x="60"
       y="110" />
    <path
       style="fill:#000000;fill-opacity:1;fill-rule:evenodd;stroke:none;stroke-width:2;stroke-linecap:butt;stroke-linejoin:miter;stroke-miterlimit:4;stroke-dasharray:none;stroke-opacity:1"
       d="M 109.40625 67.125 C 107.29346 67.175143 105.12593 67.583023 102.9375 68.3125 C 91.628719 72.082094 79.49729 84.049427 69.59375 98.53125 C 68.908351 98.491799 68.220582 98.825376 67.8125 99.4375 C 67.200111 100.35609 67.45642 101.57511 68.375 102.1875 C 69.293583 102.79989 70.54386 102.57484 71.15625 101.65625 C 71.558917 101.05225 71.568755 100.30038 71.28125 99.6875 C 81.049258 85.418137 93.072523 73.684159 103.5625 70.1875 C 108.97668 68.382773 113.87005 68.700078 118.125 71.78125 C 120.95595 73.831249 123.55049 77.204637 125.6875 82.125 C 124.55504 82.170321 123.40556 81.948554 122.3125 81.5 L 130.15625 93.0625 L 131.65625 79.1875 C 130.58545 80.450324 129.19176 81.299814 127.6875 81.75 C 125.42035 76.344279 122.60391 72.539685 119.3125 70.15625 C 116.90873 68.415586 114.26245 67.459866 111.5 67.1875 C 110.80939 67.119408 110.11051 67.108286 109.40625 67.125 z "
       transform="translate(0.5,19.5)"
       id="path2882" />
    <rect
       y="110"
       x="120"
       height="20"
       width="60"
       id="rect4271"
       style="fill:none;fill-opacity:1;stroke:#000000;stroke-width:1;stroke-miterlimit:4;stroke-dasharray:none;stroke-opacity:1" />
    <rect
       style="fill:none;fill-opacity:1;stroke:#000000;stroke-width:1;stroke-miterlimit:4;stroke-dasharray:none;stroke-opacity:1"
       id="rect4277"
       width="60"
       height="20"
       x="180"
       y="110" />
    <rect
       y="110"
       x="240"
       height="20"
       width="60"
       id="rect4283"
       style="fill:none;fill-opacity:1;stroke:#000000;stroke-width:1;stroke-miterlimit:4;stroke-dasharray:none;stroke-opacity:1" />
    <rect
       style="fill:none;fill-opacity:1;stroke:#000000;stroke-width:1;stroke-miterlimit:4;stroke-dasharray:none;stroke-opacity:1"
       id="rect4289"
       width="60"
       height="20"
       x="300"
       y="110" />
    <rect
       y="110"
       x="360"
       height="20"
       width="60"
       id="rect4295"
       style="fill:none;fill-opacity:1;stroke:#000000;stroke-width:1;stroke-miterlimit:4;stroke-dasharray:none;stroke-opacity:1" />
    <rect
       y="110"
       x="420"
       height="20"
       width="60"
       id="rect4301"
       style="fill:none;fill-opacity:1;stroke:#000000;stroke-width:1;stroke-miterlimit:4;stroke-dasharray:none;stroke-opacity:1" />
    <path
       style="fill:#000000;fill-opacity:1;fill-rule:evenodd;stroke:none;stroke-width:2;stroke-linecap:butt;stroke-linejoin:miter;stroke-miterlimit:4;stroke-dasharray:none;stroke-opacity:1"
       d="M 489.40625 237.125 C 487.29346 237.17514 485.12593 237.58302 482.9375 238.3125 C 471.26586 242.20305 458.72737 254.83083 448.65625 269.9375 L 450.34375 271.0625 C 460.27263 256.16917 472.73414 243.79695 483.5625 240.1875 C 488.97668 238.38277 493.87005 238.70008 498.125 241.78125 C 500.95426 243.83003 503.51775 247.20909 505.65625 252.125 C 504.53404 252.16552 503.39536 251.94437 502.3125 251.5 L 510.15625 263.0625 L 511.65625 249.1875 C 510.58545 250.45033 509.19176 251.29981 507.6875 251.75 C 505.42245 246.34642 502.60276 242.53885 499.3125 240.15625 C 496.90873 238.41559 494.26245 237.45987 491.5 237.1875 C 490.80939 237.11941 490.11051 237.10829 489.40625 237.125 z "
       transform="translate(0.5,19.5)"
       id="path5065" />
    <path
       id="path2521"
       d="M 451.08721,288.36918 C 452.0058,288.98157 452.2543,290.2241 451.64191,291.14268 C 451.02952,292.06127 449.787,292.30977 448.86841,291.69738 C 447.94983,291.08499 447.70132,289.84247 448.31371,288.92388 C 448.9261,288.0053 450.16863,287.75679 451.08721,288.36918 z"
       style="fill-rule:evenodd;stroke:#000000;stroke-width:0.2pt;marker-start:none;marker-end:none" />
    <g
       id="g5028"
       transform="translate(-0.5,10.5)">
      <g
         id="g4525">
        <path
           sodipodi:type="arc"
           style="fill:#000000;fill-opacity:1;stroke:none;stroke-width:2;stroke-miterlimit:4;stroke-dasharray:none;stroke-opacity:1"
           id="path4519"
           sodipodi:cx="45.5"
           sodipodi:cy="109.5"
           sodipodi:rx="2"
           sodipodi:ry="2"
           d="m 47.5,109.5 a 2,2 0 0 1 -2,2 2,2 0 0 1 -2,-2 2,2 0 0 1 2,-2 2,2 0 0 1 2,2 z"
           transform="translate(5,0)" />
        <path
           transform="translate(-5,0)"
           d="m 47.5,109.5 a 2,2 0 0 1 -2,2 2,2 0 0 1 -2,-2 2,2 0 0 1 2,-2 2,2 0 0 1 2,2 z"
           sodipodi:ry="2"
           sodipodi:rx="2"
           sodipodi:cy="109.5"
           sodipodi:cx="45.5"
           id="path4521"
           style="fill:#000000;fill-opacity:1;stroke:none;stroke-width:2;stroke-miterlimit:4;stroke-dasharray:none;stroke-opacity:1"
           sodipodi:type="arc" />
        <path
           sodipodi:type="arc"
           style="fill:#000000;fill-opacity:1;stroke:none;stroke-width:2;stroke-miterlimit:4;stroke-dasharray:none;stroke-opacity:1"
           id="path4523"
           sodipodi:cx="45.5"
           sodipodi:cy="109.5"
           sodipodi:rx="2"
           sodipodi:ry="2"
           d="m 47.5,109.5 a 2,2 0 0 1 -2,2 2,2 0 0 1 -2,-2 2,2 0 0 1 2,-2 2,2 0 0 1 2,2 z"
           transform="translate(-15,0)" />
      </g>
      <path
         style="fill:url(#linearGradient5508);fill-opacity:1;fill-rule:evenodd;stroke:none;stroke-width:2;stroke-linecap:butt;stroke-linejoin:miter;stroke-miterlimit:4;stroke-dasharray:none;stroke-opacity:1"
         d="M 50.40625,76.125 C 48.293462,76.175143 46.125932,76.583023 43.9375,77.3125 C 32.265863,81.203046 19.727365,93.830827 9.65625,108.9375 L 11.34375,110.0625 C 21.272635,95.169173 33.734137,82.796954 44.5625,79.1875 C 49.976681,77.382773 54.870049,77.700078 59.125,80.78125 C 61.958078,82.832789 64.519834,86.196965 66.65625,91.125 C 65.534036,91.165518 64.395369,90.944371 63.3125,90.5 L 71.15625,102.0625 L 72.65625,88.1875 C 71.585448,89.450325 70.191764,90.299815 68.6875,90.75 C 66.421901,85.352182 63.600565,81.537262 60.3125,79.15625 C 57.908726,77.415586 55.262451,76.459866 52.5,76.1875 C 51.809387,76.119408 51.110513,76.108286 50.40625,76.125 z"
         id="path4542" />
    </g>
    <text
       id="text4974"
       y="219.5"
       x="299.03906"
       style="font-size:48.00000191px;font-style:normal;font-weight:normal;text-align:center;text-anchor:middle;fill:#000000;fill-opacity:1;stroke:none;font-family:'Bitstream Vera Sans';-inkscape-font-specification:'Bitstream Vera Sans, Normal';font-stretch:normal;font-variant:normal;writing-mode:lr;line-height:125%;"
       xml:space="preserve"
       sodipodi:linespacing="125%"><tspan
         sodipodi:role="line"
         id="tspan3440">Acceso aleatorio</tspan></text>
    <g
       id="g4530"
       transform="translate(519.5,10.5)">
      <path
         sodipodi:type="arc"
         style="fill:#000000;fill-opacity:1;stroke:none;stroke-width:2;stroke-miterlimit:4;stroke-dasharray:none;stroke-opacity:1"
         id="path4532"
         sodipodi:cx="45.5"
         sodipodi:cy="109.5"
         sodipodi:rx="2"
         sodipodi:ry="2"
         d="m 47.5,109.5 a 2,2 0 0 1 -2,2 2,2 0 0 1 -2,-2 2,2 0 0 1 2,-2 2,2 0 0 1 2,2 z"
         transform="translate(5,0)" />
      <path
         transform="translate(-5,0)"
         d="m 47.5,109.5 a 2,2 0 0 1 -2,2 2,2 0 0 1 -2,-2 2,2 0 0 1 2,-2 2,2 0 0 1 2,2 z"
         sodipodi:ry="2"
         sodipodi:rx="2"
         sodipodi:cy="109.5"
         sodipodi:cx="45.5"
         id="path4534"
         style="fill:#000000;fill-opacity:1;stroke:none;stroke-width:2;stroke-miterlimit:4;stroke-dasharray:none;stroke-opacity:1"
         sodipodi:type="arc" />
      <path
         sodipodi:type="arc"
         style="fill:#000000;fill-opacity:1;stroke:none;stroke-width:2;stroke-miterlimit:4;stroke-dasharray:none;stroke-opacity:1"
         id="path4536"
         sodipodi:cx="45.5"
         sodipodi:cy="109.5"
         sodipodi:rx="2"
         sodipodi:ry="2"
         d="m 47.5,109.5 a 2,2 0 0 1 -2,2 2,2 0 0 1 -2,-2 2,2 0 0 1 2,-2 2,2 0 0 1 2,2 z"
         transform="translate(-15,0)" />
    </g>
    <rect
       style="fill:none;fill-opacity:1;stroke:#000000;stroke-width:1;stroke-miterlimit:4;stroke-dasharray:none;stroke-opacity:1"
       id="rect4980"
       width="60"
       height="20"
       x="480"
       y="110" />
    <path
       style="fill:url(#linearGradient5476);fill-opacity:1;fill-rule:evenodd;stroke:none;stroke-width:2;stroke-linecap:butt;stroke-linejoin:miter;stroke-miterlimit:4;stroke-dasharray:none;stroke-opacity:1"
       d="M 529.90625,86.625 C 527.79346,86.675143 525.62593,87.083023 523.4375,87.8125 C 512.12872,91.58209 499.99729,103.54943 490.09375,118.03125 C 489.40835,117.9918 488.72058,118.32538 488.3125,118.9375 C 487.70011,119.85609 487.95642,121.07511 488.875,121.6875 C 489.79359,122.29989 491.04386,122.07484 491.65625,121.15625 C 492.05892,120.55225 492.06875,119.80038 491.78125,119.1875 C 501.54925,104.91814 513.57253,93.18416 524.0625,89.6875 C 529.47668,87.882773 534.37005,88.200078 538.625,91.28125 C 541.45595,93.33125 544.05049,96.70464 546.1875,101.625 C 545.05504,101.67032 543.90557,101.44855 542.8125,101 L 550.65625,112.5625 L 552.15625,98.6875 C 551.08545,99.95033 549.69177,100.79982 548.1875,101.25 C 545.92035,95.84428 543.10391,92.03969 539.8125,89.65625 C 537.40873,87.915586 534.76245,86.959866 532,86.6875 C 531.30939,86.619408 530.61051,86.608286 529.90625,86.625 z"
       id="path4982" />
    <rect
       style="fill:none;fill-opacity:1;stroke:#000000;stroke-width:1;stroke-miterlimit:4;stroke-dasharray:none;stroke-opacity:1"
       id="rect5037"
       width="60"
       height="20"
       x="60"
       y="280" />
    <path
       style="fill:#000000;fill-opacity:1;fill-rule:evenodd;stroke:none;stroke-width:2;stroke-linecap:butt;stroke-linejoin:miter;stroke-miterlimit:4;stroke-dasharray:none;stroke-opacity:1"
       d="M 200.34375 218.28125 C 199.45103 218.28913 198.5542 218.3178 197.65625 218.34375 C 192.86719 218.48216 187.99988 218.87098 183.125 219.5 C 144.12596 224.53213 103.93872 244.52922 88.65625 270 L 90.34375 271 C 105.06128 246.47078 144.87404 226.46787 183.375 221.5 C 202.62548 219.01607 221.53414 220.27705 236.78125 226.4375 C 249.33334 231.50905 259.37268 239.85918 265.28125 252.25 C 264.19161 252.31282 263.06586 252.14644 262 251.75 L 270.25 263.03125 L 271.28125 249.125 C 270.23082 250.45094 268.83899 251.35187 267.3125 251.84375 C 261.19185 238.7386 250.6032 229.84409 237.53125 224.5625 C 226.49895 220.10501 213.73455 218.16298 200.34375 218.28125 z "
       transform="translate(0.5,19.5)"
       id="path5039" />
    <path
       id="path2511"
       d="M 91.008412,288.31931 C 91.955084,288.88732 92.262409,290.11662 91.694406,291.06329 C 91.126403,292.00996 89.897101,292.31729 88.950429,291.74929 C 88.003756,291.18128 87.696431,289.95198 88.264434,289.00531 C 88.832438,288.05864 90.061739,287.75131 91.008412,288.31931 z"
       style="fill-rule:evenodd;stroke:#000000;stroke-width:0.2pt;marker-start:none;marker-end:none" />
    <rect
       y="280"
       x="120"
       height="20"
       width="60"
       id="rect5043"
       style="fill:none;fill-opacity:1;stroke:#000000;stroke-width:1;stroke-miterlimit:4;stroke-dasharray:none;stroke-opacity:1" />
    <rect
       style="fill:none;fill-opacity:1;stroke:#000000;stroke-width:1;stroke-miterlimit:4;stroke-dasharray:none;stroke-opacity:1"
       id="rect5045"
       width="60"
       height="20"
       x="180"
       y="280" />
    <rect
       y="280"
       x="240"
       height="20"
       width="60"
       id="rect5047"
       style="fill:none;fill-opacity:1;stroke:#000000;stroke-width:1;stroke-miterlimit:4;stroke-dasharray:none;stroke-opacity:1" />
    <rect
       style="fill:none;fill-opacity:1;stroke:#000000;stroke-width:1;stroke-miterlimit:4;stroke-dasharray:none;stroke-opacity:1"
       id="rect5049"
       width="60"
       height="20"
       x="300"
       y="280" />
    <rect
       y="280"
       x="360"
       height="20"
       width="60"
       id="rect5051"
       style="fill:none;fill-opacity:1;stroke:#000000;stroke-width:1;stroke-miterlimit:4;stroke-dasharray:none;stroke-opacity:1" />
    <rect
       style="fill:none;fill-opacity:1;stroke:#000000;stroke-width:1;stroke-miterlimit:4;stroke-dasharray:none;stroke-opacity:1"
       id="rect5053"
       width="60"
       height="20"
       x="420"
       y="280" />
    <rect
       y="280"
       x="480"
       height="20"
       width="60"
       id="rect5055"
       style="fill:none;fill-opacity:1;stroke:#000000;stroke-width:1;stroke-miterlimit:4;stroke-dasharray:none;stroke-opacity:1" />
    <path
       style="fill:#000000;fill-opacity:1;fill-rule:evenodd;stroke:none;stroke-width:2;stroke-linecap:butt;stroke-linejoin:miter;stroke-miterlimit:4;stroke-dasharray:none;stroke-opacity:1"
       d="M 340.78125 218.28125 C 339.42089 218.28899 338.05776 218.31796 336.6875 218.34375 C 329.37947 218.48132 321.9263 218.87333 314.40625 219.5 C 254.24589 224.51336 189.17837 244.52524 148.96875 269.65625 L 150.03125 271.34375 C 189.82163 246.47476 254.75411 226.48664 314.59375 221.5 C 344.51357 219.00668 373.16034 220.26095 396.75 226.46875 C 416.70536 231.72015 432.94819 240.51237 443.4375 253.5 C 442.39297 253.822 441.25633 253.94346 440.125 253.8125 L 450.84375 262.78125 L 448.5 249 C 447.80312 250.52301 446.69069 251.75239 445.34375 252.59375 C 434.51694 238.96977 417.66626 229.90395 397.25 224.53125 C 380.43804 220.10705 361.18661 218.16514 340.78125 218.28125 z "
       transform="translate(0.5,19.5)"
       id="path5061" />
    <path
       id="path2501"
       d="M 151.66208,288.9612 C 152.2472,289.89739 151.96227,291.13208 151.02608,291.7172 C 150.08989,292.30232 148.8552,292.01739 148.27008,291.0812 C 147.68496,290.14501 147.96989,288.91032 148.90608,288.3252 C 149.84227,287.74008 151.07696,288.02501 151.66208,288.9612 z"
       style="fill-rule:evenodd;stroke:#000000;stroke-width:0.2pt;marker-start:none;marker-end:none" />
    <path
       style="fill:#000000;fill-opacity:1;fill-rule:evenodd;stroke:none;stroke-width:2;stroke-linecap:butt;stroke-linejoin:miter;stroke-miterlimit:4;stroke-dasharray:none;stroke-opacity:1"
       d="M 508.78125 269.78125 C 488.8991 289.6634 464.03569 304.55134 441.84375 308.25 C 430.74778 310.09933 420.33221 309.16611 411.5 304.75 C 404.80556 301.40277 399.00411 296.03738 394.4375 288.28125 C 395.54372 288.08962 396.71103 288.14358 397.84375 288.4375 L 388.5 278.0625 L 388.90625 292 C 389.79608 290.60489 391.04015 289.55566 392.46875 288.90625 C 397.26356 297.17956 403.46148 302.98075 410.625 306.5625 C 419.91779 311.20889 430.75222 312.15067 442.15625 310.25 C 464.96431 306.44866 490.1009 291.3366 510.21875 271.21875 L 508.78125 269.78125 z "
       transform="translate(0.5,19.5)"
       id="path5074" />
    <path
       id="path2551"
       d="M 508.61407,291.38593 C 507.83342,290.60528 507.83342,289.33815 508.61407,288.5575 C 509.39472,287.77686 510.66185,287.77686 511.4425,288.5575 C 512.22314,289.33815 512.22314,290.60528 511.4425,291.38593 C 510.66185,292.16658 509.39472,292.16658 508.61407,291.38593 z"
       style="fill-rule:evenodd;stroke:#000000;stroke-width:0.2pt;marker-start:none;marker-end:none" />
    <path
       style="fill:#000000;fill-opacity:1;fill-rule:evenodd;stroke:none;stroke-width:2;stroke-linecap:butt;stroke-linejoin:miter;stroke-miterlimit:4;stroke-dasharray:none;stroke-opacity:1"
       d="M 282.875 229.875 C 282.29635 229.87893 281.70615 229.88378 281.125 229.90625 C 278.46832 230.00897 275.76006 230.27396 273.0625 230.75 C 251.48204 234.55832 228.86964 249.69286 208.78125 269.78125 L 210.21875 271.21875 C 230.13036 251.30714 252.51796 236.44168 273.4375 232.75 C 292.05949 229.46377 309.51277 234.83441 323.59375 253.5 C 322.46756 253.9264 321.25079 254.11788 320 254 L 330.875 262.75 L 328.28125 249.03125 C 327.64613 250.50113 326.59332 251.69838 325.34375 252.5625 C 313.29855 236.53267 298.56868 229.7683 282.875 229.875 z "
       transform="translate(0.5,19.5)"
       id="path5076" />
    <path
       id="path2491"
       d="M 211.38593,288.61407 C 212.16658,289.39472 212.16658,290.66185 211.38593,291.4425 C 210.60528,292.22314 209.33815,292.22314 208.5575,291.4425 C 207.77686,290.66185 207.77686,289.39472 208.5575,288.61407 C 209.33815,287.83342 210.60528,287.83342 211.38593,288.61407 z"
       style="fill-rule:evenodd;stroke:#000000;stroke-width:0.2pt;marker-start:none;marker-end:none" />
    <path
       style="fill:#000000;fill-opacity:1;fill-rule:evenodd;stroke:none;stroke-width:2;stroke-linecap:butt;stroke-linejoin:miter;stroke-miterlimit:4;stroke-dasharray:none;stroke-opacity:1"
       d="M 268.78125 269.78125 C 248.8991 289.6634 224.03569 304.55134 201.84375 308.25 C 190.74778 310.09933 180.33221 309.16611 171.5 304.75 C 164.80613 301.40306 159.00465 296.03659 154.4375 288.28125 C 155.54372 288.08962 156.71102 288.14358 157.84375 288.4375 L 148.5 278.0625 L 148.90625 292 C 149.79608 290.60489 151.04015 289.55566 152.46875 288.90625 C 157.26147 297.18398 163.45908 302.97955 170.625 306.5625 C 179.91779 311.20889 190.75222 312.15067 202.15625 310.25 C 224.96431 306.44866 250.1009 291.3366 270.21875 271.21875 L 268.78125 269.78125 z "
       transform="translate(0.5,19.5)"
       id="path5078" />
    <path
       id="path2541"
       d="M 268.61407,291.38593 C 267.83342,290.60528 267.83342,289.33815 268.61407,288.5575 C 269.39472,287.77686 270.66185,287.77686 271.4425,288.5575 C 272.22314,289.33815 272.22314,290.60528 271.4425,291.38593 C 270.66185,292.16658 269.39472,292.16658 268.61407,291.38593 z"
       style="fill-rule:evenodd;stroke:#000000;stroke-width:0.2pt;marker-start:none;marker-end:none" />
    <text
       xml:space="preserve"
       style="font-size:12px;font-style:normal;font-weight:normal;text-align:center;text-anchor:middle;fill:#000000;fill-opacity:1;stroke:none;stroke-width:1px;stroke-linecap:butt;stroke-linejoin:miter;stroke-opacity:1;font-family:Bitstream Vera Sans"
       x="90.902344"
       y="160"
       id="text5080"><tspan
         sodipodi:role="line"
         id="tspan5082"
         x="90.902344"
         y="160"
         style="font-size:24px;text-align:center;text-anchor:middle">1</tspan></text>
    <text
       xml:space="preserve"
       style="font-size:24px;font-style:normal;font-weight:normal;text-align:center;text-anchor:middle;fill:#000000;fill-opacity:1;stroke:none;stroke-width:1px;stroke-linecap:butt;stroke-linejoin:miter;stroke-opacity:1;font-family:Bitstream Vera Sans"
       x="150.28711"
       y="160"
       id="text5110"><tspan
         sodipodi:role="line"
         id="tspan5112"
         x="150.28711"
         y="160">2</tspan></text>
    <text
       id="text5114"
       y="160"
       x="210.04688"
       style="font-size:24px;font-style:normal;font-weight:normal;text-align:center;text-anchor:middle;fill:#000000;fill-opacity:1;stroke:none;stroke-width:1px;stroke-linecap:butt;stroke-linejoin:miter;stroke-opacity:1;font-family:Bitstream Vera Sans"
       xml:space="preserve"><tspan
         y="160"
         x="210.04688"
         id="tspan5116"
         sodipodi:role="line">3</tspan></text>
    <text
       xml:space="preserve"
       style="font-size:24px;font-style:normal;font-weight:normal;text-align:center;text-anchor:middle;fill:#000000;fill-opacity:1;stroke:none;stroke-width:1px;stroke-linecap:butt;stroke-linejoin:miter;stroke-opacity:1;font-family:Bitstream Vera Sans"
       x="270.43359"
       y="160"
       id="text5118"><tspan
         sodipodi:role="line"
         id="tspan5120"
         x="270.43359"
         y="160">4</tspan></text>
    <text
       id="text5122"
       y="160"
       x="329.98828"
       style="font-size:24px;font-style:normal;font-weight:normal;text-align:center;text-anchor:middle;fill:#000000;fill-opacity:1;stroke:none;stroke-width:1px;stroke-linecap:butt;stroke-linejoin:miter;stroke-opacity:1;font-family:Bitstream Vera Sans"
       xml:space="preserve"><tspan
         y="160"
         x="329.98828"
         id="tspan5124"
         sodipodi:role="line">5</tspan></text>
    <text
       xml:space="preserve"
       style="font-size:24px;font-style:normal;font-weight:normal;text-align:center;text-anchor:middle;fill:#000000;fill-opacity:1;stroke:none;stroke-width:1px;stroke-linecap:butt;stroke-linejoin:miter;stroke-opacity:1;font-family:Bitstream Vera Sans"
       x="390.10547"
       y="160"
       id="text5126"><tspan
         sodipodi:role="line"
         id="tspan5128"
         x="390.10547"
         y="160">6</tspan></text>
    <text
       id="text5130"
       y="160"
       x="449.98242"
       style="font-size:24px;font-style:normal;font-weight:normal;text-align:center;text-anchor:middle;fill:#000000;fill-opacity:1;stroke:none;stroke-width:1px;stroke-linecap:butt;stroke-linejoin:miter;stroke-opacity:1;font-family:Bitstream Vera Sans"
       xml:space="preserve"><tspan
         y="160"
         x="449.98242"
         id="tspan5132"
         sodipodi:role="line">7</tspan></text>
    <text
       xml:space="preserve"
       style="font-size:24px;font-style:normal;font-weight:normal;text-align:center;text-anchor:middle;fill:#000000;fill-opacity:1;stroke:none;stroke-width:1px;stroke-linecap:butt;stroke-linejoin:miter;stroke-opacity:1;font-family:Bitstream Vera Sans"
       x="510.04688"
       y="160"
       id="text5134"><tspan
         sodipodi:role="line"
         id="tspan5136"
         x="510.04688"
         y="160">8</tspan></text>
    <text
       id="text5138"
       y="360"
       x="90.902344"
       style="font-size:12px;font-style:normal;font-weight:normal;text-align:center;text-anchor:middle;fill:#000000;fill-opacity:1;stroke:none;stroke-width:1px;stroke-linecap:butt;stroke-linejoin:miter;stroke-opacity:1;font-family:Bitstream Vera Sans"
       xml:space="preserve"><tspan
         style="font-size:24px;text-align:center;text-anchor:middle"
         y="360"
         x="90.902344"
         id="tspan5140"
         sodipodi:role="line">1</tspan></text>
    <text
       id="text5142"
       y="360"
       x="150.28711"
       style="font-size:24px;font-style:normal;font-weight:normal;text-align:center;text-anchor:middle;fill:#000000;fill-opacity:1;stroke:none;stroke-width:1px;stroke-linecap:butt;stroke-linejoin:miter;stroke-opacity:1;font-family:Bitstream Vera Sans"
       xml:space="preserve"><tspan
         y="360"
         x="150.28711"
         id="tspan5144"
         sodipodi:role="line">3</tspan></text>
    <text
       xml:space="preserve"
       style="font-size:24px;font-style:normal;font-weight:normal;text-align:center;text-anchor:middle;fill:#000000;fill-opacity:1;stroke:none;stroke-width:1px;stroke-linecap:butt;stroke-linejoin:miter;stroke-opacity:1;font-family:Bitstream Vera Sans"
       x="210.04688"
       y="360"
       id="text5146"><tspan
         sodipodi:role="line"
         id="tspan5148"
         x="210.04688"
         y="360">7</tspan></text>
    <text
       id="text5150"
       y="360"
       x="270.43359"
       style="font-size:24px;font-style:normal;font-weight:normal;text-align:center;text-anchor:middle;fill:#000000;fill-opacity:1;stroke:none;stroke-width:1px;stroke-linecap:butt;stroke-linejoin:miter;stroke-opacity:1;font-family:Bitstream Vera Sans"
       xml:space="preserve"><tspan
         y="360"
         x="270.43359"
         id="tspan5152"
         sodipodi:role="line">2</tspan></text>
    <text
       xml:space="preserve"
       style="font-size:24px;font-style:normal;font-weight:normal;text-align:center;text-anchor:middle;fill:#000000;fill-opacity:1;stroke:none;stroke-width:1px;stroke-linecap:butt;stroke-linejoin:miter;stroke-opacity:1;font-family:Bitstream Vera Sans"
       x="329.98828"
       y="360"
       id="text5154"><tspan
         sodipodi:role="line"
         id="tspan5156"
         x="329.98828"
         y="360">8</tspan></text>
    <text
       id="text5158"
       y="360"
       x="390.10547"
       style="font-size:24px;font-style:normal;font-weight:normal;text-align:center;text-anchor:middle;fill:#000000;fill-opacity:1;stroke:none;stroke-width:1px;stroke-linecap:butt;stroke-linejoin:miter;stroke-opacity:1;font-family:Bitstream Vera Sans"
       xml:space="preserve"><tspan
         y="360"
         x="390.10547"
         id="tspan5160"
         sodipodi:role="line">6</tspan></text>
    <text
       xml:space="preserve"
       style="font-size:24px;font-style:normal;font-weight:normal;text-align:center;text-anchor:middle;fill:#000000;fill-opacity:1;stroke:none;stroke-width:1px;stroke-linecap:butt;stroke-linejoin:miter;stroke-opacity:1;font-family:Bitstream Vera Sans"
       x="449.98242"
       y="360"
       id="text5162"><tspan
         sodipodi:role="line"
         id="tspan5164"
         x="449.98242"
         y="360">4</tspan></text>
    <text
       id="text5166"
       y="360"
       x="510.04688"
       style="font-size:24px;font-style:normal;font-weight:normal;text-align:center;text-anchor:middle;fill:#000000;fill-opacity:1;stroke:none;stroke-width:1px;stroke-linecap:butt;stroke-linejoin:miter;stroke-opacity:1;font-family:Bitstream Vera Sans"
       xml:space="preserve"><tspan
         y="360"
         x="510.04688"
         id="tspan5168"
         sodipodi:role="line">5</tspan></text>
    <path
       style="fill:#000000;fill-opacity:1;fill-rule:evenodd;stroke:none;stroke-width:2;stroke-linecap:butt;stroke-linejoin:miter;stroke-miterlimit:4;stroke-dasharray:none;stroke-opacity:1"
       d="M 388.78125 269.78125 C 369.07588 289.48662 329.21359 304.51927 291.90625 308.25 C 273.25258 310.11537 255.22193 309.16188 240.71875 304.6875 C 229.71526 301.29281 220.76743 295.92686 214.96875 288.21875 C 215.91445 288.11728 216.8867 288.18916 217.84375 288.4375 L 208.5 278.0625 L 208.90625 292 C 209.88561 290.46453 211.29706 289.34133 212.90625 288.71875 C 219.00718 297.1982 228.57201 303.05113 240.15625 306.625 C 255.02807 311.21312 273.24742 312.13463 292.09375 310.25 C 329.78641 306.48073 369.92412 291.51338 390.21875 271.21875 L 388.78125 269.78125 z "
       transform="translate(0.5,19.5)"
       id="path5170" />
    <path
       id="path2531"
       d="M 388.61407,291.38593 C 387.83342,290.60528 387.83342,289.33815 388.61407,288.5575 C 389.39472,287.77686 390.66185,287.77686 391.4425,288.5575 C 392.22314,289.33815 392.22314,290.60528 391.4425,291.38593 C 390.66185,292.16658 389.39472,292.16658 388.61407,291.38593 z"
       style="fill-rule:evenodd;stroke:#000000;stroke-width:0.2pt;marker-start:none;marker-end:none" />
    <path
       transform="translate(285,180)"
       d="m 47.5,109.5 a 2,2 0 0 1 -2,2 2,2 0 0 1 -2,-2 2,2 0 0 1 2,-2 2,2 0 0 1 2,2 z"
       sodipodi:ry="2"
       sodipodi:rx="2"
       sodipodi:cy="109.5"
       sodipodi:cx="45.5"
       id="path5514"
       style="fill:#000000;fill-opacity:1;stroke:none;stroke-width:2;stroke-miterlimit:4;stroke-dasharray:none;stroke-opacity:1"
       sodipodi:type="arc" />
    <path
       id="path2473"
       d="M 169.90625,86.625 C 167.79346,86.675143 165.62593,87.083023 163.4375,87.8125 C 152.12872,91.582094 139.99729,103.54943 130.09375,118.03125 C 129.40835,117.9918 128.72058,118.32538 128.3125,118.9375 C 127.70011,119.85609 127.95642,121.07511 128.875,121.6875 C 129.79358,122.29989 131.04386,122.07484 131.65625,121.15625 C 132.05892,120.55225 132.06876,119.80038 131.78125,119.1875 C 141.54926,104.91814 153.57252,93.184159 164.0625,89.6875 C 169.47668,87.882773 174.37005,88.200078 178.625,91.28125 C 181.45595,93.331249 184.05049,96.704637 186.1875,101.625 C 185.05504,101.67032 183.90556,101.44855 182.8125,101 L 190.65625,112.5625 L 192.15625,98.6875 C 191.08545,99.950324 189.69176,100.79981 188.1875,101.25 C 185.92035,95.844279 183.10391,92.039685 179.8125,89.65625 C 177.40873,87.915586 174.76245,86.959866 172,86.6875 C 171.30939,86.619408 170.61051,86.608286 169.90625,86.625 z"
       style="fill:#000000;fill-opacity:1;fill-rule:evenodd;stroke:none;stroke-width:2;stroke-linecap:butt;stroke-linejoin:miter;stroke-miterlimit:4;stroke-dasharray:none;stroke-opacity:1" />
    <path
       style="fill:#000000;fill-opacity:1;fill-rule:evenodd;stroke:none;stroke-width:2;stroke-linecap:butt;stroke-linejoin:miter;stroke-miterlimit:4;stroke-dasharray:none;stroke-opacity:1"
       d="M 229.90625,86.625 C 227.79346,86.675143 225.62593,87.083023 223.4375,87.8125 C 212.12872,91.582094 199.99729,103.54943 190.09375,118.03125 C 189.40835,117.9918 188.72058,118.32538 188.3125,118.9375 C 187.70011,119.85609 187.95642,121.07511 188.875,121.6875 C 189.79358,122.29989 191.04386,122.07484 191.65625,121.15625 C 192.05892,120.55225 192.06876,119.80038 191.78125,119.1875 C 201.54926,104.91814 213.57252,93.184159 224.0625,89.6875 C 229.47668,87.882773 234.37005,88.200078 238.625,91.28125 C 241.45595,93.331249 244.05049,96.704637 246.1875,101.625 C 245.05504,101.67032 243.90556,101.44855 242.8125,101 L 250.65625,112.5625 L 252.15625,98.6875 C 251.08545,99.950324 249.69176,100.79981 248.1875,101.25 C 245.92035,95.844279 243.10391,92.039685 239.8125,89.65625 C 237.40873,87.915586 234.76245,86.959866 232,86.6875 C 231.30939,86.619408 230.61051,86.608286 229.90625,86.625 z"
       id="path2475" />
    <path
       id="path2477"
       d="M 289.90625,86.625 C 287.79346,86.675143 285.62593,87.083023 283.4375,87.8125 C 272.12872,91.582094 259.99729,103.54943 250.09375,118.03125 C 249.40835,117.9918 248.72058,118.32538 248.3125,118.9375 C 247.70011,119.85609 247.95642,121.07511 248.875,121.6875 C 249.79358,122.29989 251.04386,122.07484 251.65625,121.15625 C 252.05892,120.55225 252.06876,119.80038 251.78125,119.1875 C 261.54926,104.91814 273.57252,93.184159 284.0625,89.6875 C 289.47668,87.882773 294.37005,88.200078 298.625,91.28125 C 301.45595,93.331249 304.05049,96.704637 306.1875,101.625 C 305.05504,101.67032 303.90556,101.44855 302.8125,101 L 310.65625,112.5625 L 312.15625,98.6875 C 311.08545,99.950324 309.69176,100.79981 308.1875,101.25 C 305.92035,95.844279 303.10391,92.039685 299.8125,89.65625 C 297.40873,87.915586 294.76245,86.959866 292,86.6875 C 291.30939,86.619408 290.61051,86.608286 289.90625,86.625 z"
       style="fill:#000000;fill-opacity:1;fill-rule:evenodd;stroke:none;stroke-width:2;stroke-linecap:butt;stroke-linejoin:miter;stroke-miterlimit:4;stroke-dasharray:none;stroke-opacity:1" />
    <path
       style="fill:#000000;fill-opacity:1;fill-rule:evenodd;stroke:none;stroke-width:2;stroke-linecap:butt;stroke-linejoin:miter;stroke-miterlimit:4;stroke-dasharray:none;stroke-opacity:1"
       d="M 349.90625,86.625 C 347.79346,86.675143 345.62593,87.083023 343.4375,87.8125 C 332.12872,91.582094 319.99729,103.54943 310.09375,118.03125 C 309.40835,117.9918 308.72058,118.32538 308.3125,118.9375 C 307.70011,119.85609 307.95642,121.07511 308.875,121.6875 C 309.79358,122.29989 311.04386,122.07484 311.65625,121.15625 C 312.05892,120.55225 312.06876,119.80038 311.78125,119.1875 C 321.54926,104.91814 333.57252,93.184159 344.0625,89.6875 C 349.47668,87.882773 354.37005,88.200078 358.625,91.28125 C 361.45595,93.331249 364.05049,96.704637 366.1875,101.625 C 365.05504,101.67032 363.90556,101.44855 362.8125,101 L 370.65625,112.5625 L 372.15625,98.6875 C 371.08545,99.950324 369.69176,100.79981 368.1875,101.25 C 365.92035,95.844279 363.10391,92.039685 359.8125,89.65625 C 357.40873,87.915586 354.76245,86.959866 352,86.6875 C 351.30939,86.619408 350.61051,86.608286 349.90625,86.625 z"
       id="path2479" />
    <path
       id="path2481"
       d="M 409.90625,86.625 C 407.79346,86.675143 405.62593,87.083023 403.4375,87.8125 C 392.12872,91.582094 379.99729,103.54943 370.09375,118.03125 C 369.40835,117.9918 368.72058,118.32538 368.3125,118.9375 C 367.70011,119.85609 367.95642,121.07511 368.875,121.6875 C 369.79358,122.29989 371.04386,122.07484 371.65625,121.15625 C 372.05892,120.55225 372.06876,119.80038 371.78125,119.1875 C 381.54926,104.91814 393.57252,93.184159 404.0625,89.6875 C 409.47668,87.882773 414.37005,88.200078 418.625,91.28125 C 421.45595,93.331249 424.05049,96.704637 426.1875,101.625 C 425.05504,101.67032 423.90556,101.44855 422.8125,101 L 430.65625,112.5625 L 432.15625,98.6875 C 431.08545,99.950324 429.69176,100.79981 428.1875,101.25 C 425.92035,95.844279 423.10391,92.039685 419.8125,89.65625 C 417.40873,87.915586 414.76245,86.959866 412,86.6875 C 411.30939,86.619408 410.61051,86.608286 409.90625,86.625 z"
       style="fill:#000000;fill-opacity:1;fill-rule:evenodd;stroke:none;stroke-width:2;stroke-linecap:butt;stroke-linejoin:miter;stroke-miterlimit:4;stroke-dasharray:none;stroke-opacity:1" />
    <path
       style="fill:#000000;fill-opacity:1;fill-rule:evenodd;stroke:none;stroke-width:2;stroke-linecap:butt;stroke-linejoin:miter;stroke-miterlimit:4;stroke-dasharray:none;stroke-opacity:1"
       d="M 469.90625,86.625 C 467.79346,86.675143 465.62593,87.083023 463.4375,87.8125 C 452.12872,91.582094 439.99729,103.54943 430.09375,118.03125 C 429.40835,117.9918 428.72058,118.32538 428.3125,118.9375 C 427.70011,119.85609 427.95642,121.07511 428.875,121.6875 C 429.79358,122.29989 431.04386,122.07484 431.65625,121.15625 C 432.05892,120.55225 432.06876,119.80038 431.78125,119.1875 C 441.54926,104.91814 453.57252,93.184159 464.0625,89.6875 C 469.47668,87.882773 474.37005,88.200078 478.625,91.28125 C 481.45595,93.331249 484.05049,96.704637 486.1875,101.625 C 485.05504,101.67032 483.90556,101.44855 482.8125,101 L 490.65625,112.5625 L 492.15625,98.6875 C 491.08545,99.950324 489.69176,100.79981 488.1875,101.25 C 485.92035,95.844279 483.10391,92.039685 479.8125,89.65625 C 477.40873,87.915586 474.76245,86.959866 472,86.6875 C 471.30939,86.619408 470.61051,86.608286 469.90625,86.625 z"
       id="path2483" />
  </g>
</svg>
